<svg width="321" height="339" viewBox="0 0 321 339" fill="none" xmlns="http://www.w3.org/2000/svg">
<g clip-path="url(#clip0_2010_164)">
<path d="M96.8827 301C97.0981 298.456 97.3351 295.901 97.5936 293.313C99.7371 272.011 103.249 249.835 107.751 229.201C109.905 219.337 112.264 209.904 114.785 201.064L113.729 201.344L102.344 204.341L107.514 193.765L108.731 191.275L107.622 191.437L99.1878 192.644L101.719 184.505L103.766 177.939H94.556L97.3135 170.641L99.8987 163.817L91.3461 144.411C69.6631 55.3312 34.7849 57.0022 34.7849 57.0022C59.4409 71.9765 55.4231 120.543 55.3585 197.538C55.3154 244.186 75.9644 278.361 96.8611 301H96.8827Z" fill="#FFEECC"/>
<path d="M298.785 87.1424C298.785 87.1424 258.084 83.0375 236.521 118.902C235.638 138.454 232.148 151.439 225.859 158.309L230.598 170.861L233.355 178.175H224.146L226.192 184.753L228.723 192.909L220.29 191.699L219.181 191.537L220.398 194.033L225.568 204.63L214.183 201.627L213.785 201.519C216.93 212.58 219.816 224.528 222.38 237.167C225.191 251.08 227.528 265.394 229.337 279.685C230.468 288.608 231.362 297.434 232.03 306C246.344 287.636 259.161 258.826 263.663 213.617C268.595 164.088 232.03 107.721 298.774 87.1208L298.785 87.1424Z" fill="#FFEECC"/>
<path d="M170.43 110.454C175.041 110.843 179.566 111.642 183.95 112.873L226.559 79.647L234.237 73.6649L235.252 83.3508C235.252 83.448 235.306 83.9231 235.381 84.7006C235.997 82.7353 236.709 80.6944 237.552 78.5672C246.73 55.2648 229.777 16.9854 201.583 2.28918C201.583 2.28918 231.57 37.4911 197.696 72.3907C183.356 87.1625 175.149 100.25 170.42 110.454H170.43Z" fill="#FFEECC"/>
<path d="M235.489 128.455C233.988 142.557 230.706 152.318 225.533 157.955L230.285 170.502L233.049 177.813H223.817L225.868 184.389L228.406 192.541L219.951 191.332L218.839 191.17L220.059 193.664L225.242 204.257L213.828 201.256L213.429 201.148C215.945 209.937 218.277 219.299 220.426 229.115C233.189 200.597 241.752 166 235.586 129.135C235.543 128.908 235.511 128.67 235.468 128.444L235.489 128.455Z" fill="#FFEECC"/>
<path d="M107.639 229.169C109.799 219.289 112.164 209.84 114.69 200.986L113.632 201.267L102.218 204.268L107.402 193.675L108.622 191.181L107.51 191.343L99.0546 192.552L101.592 184.4L103.644 177.824H94.4114L97.1757 170.513L101.927 157.966C96.0527 151.563 92.6081 139.847 91.4527 122.451C90.5889 124.427 89.5955 126.392 88.6668 128.595C77.5879 155.061 90.3729 200.014 105.76 238.056C106.354 235.075 106.97 232.117 107.607 229.19L107.639 229.169Z" fill="#FFEECC"/>
<path d="M92.2302 83.34L93.2453 73.6541L100.923 79.6363L143.694 112.992C146.923 112.063 150.227 111.361 153.585 110.897C153.294 109.86 153.035 108.932 152.808 108.143C145.109 81.6555 132.14 71.0517 101.549 47.3498C67.0706 20.6352 94.8326 0 94.8326 0C57.5466 14.7395 64.8354 46.1944 82.3715 79.3231C86.6044 87.3137 89.4227 93.6522 91.2152 98.8461C91.5392 90.0133 92.187 83.7611 92.2194 83.3508L92.2302 83.34Z" fill="#FFEECC"/>
<path d="M216.776 237.861C213.59 222.204 209.8 207.119 205.513 193.492L215.221 196.051L209.519 184.4L220.717 185.998L216.484 172.425H225.231L219.162 156.389C236.245 144.879 229.874 83.9016 229.874 83.9016L185.051 118.844C178.572 116.739 171.488 115.573 164.048 115.573C156.608 115.573 149.179 116.793 142.592 118.985L97.5967 83.9016C97.5967 83.9016 91.2258 144.879 108.308 156.389L102.24 172.425H110.986L106.753 185.998L117.951 184.4L112.25 196.051L122.616 193.319C118.999 204.808 115.738 217.323 112.898 230.324C108.384 251.003 104.929 272.923 102.812 293.925C101.322 308.643 100.491 322.908 100.404 335.984C100.393 336.74 100.393 337.485 100.393 338.23H135.628C135.671 332.475 136.038 326.212 136.686 319.744C137.625 310.468 139.148 300.793 141.135 291.658C141.545 289.779 141.988 287.922 142.431 286.097C136.222 281.356 133.846 274.154 133.846 265.958C133.846 262.082 134.829 258.399 136.567 255.095C133.587 247.364 133.846 221.934 133.846 221.934L156.576 240.658C158.865 240.172 161.252 239.902 163.714 239.902C166.176 239.902 168.573 240.172 170.862 240.658L193.592 221.934C193.592 221.934 193.862 247.364 190.871 255.095C192.62 258.399 193.592 262.082 193.592 265.958C193.592 274.143 191.26 281.551 185.083 286.356C185.774 289.174 186.411 292.057 187.016 294.984C188.247 301.084 189.284 307.369 190.072 313.578C191.163 322.206 191.778 330.661 191.832 338.219H227.693C227.693 320.478 226.278 300.426 223.686 279.963C221.905 265.904 219.572 251.661 216.776 237.851V237.861ZM164.048 200.889L155.712 186.441H172.395L164.059 200.889H164.048Z" fill="#FFEECC"/>
<path d="M158.11 264.5L163.735 274.24L169.361 264.5H158.11Z" fill="#FFEECC"/>
</g>
<defs>
<clipPath id="clip0_2010_164">
<rect width="320.87" height="338.41" fill="white"/>
</clipPath>
</defs>
</svg>
